#!OML:ASF E:/inclinewalkrobotboard/Project1/Captureday1/Session1/subject1.ASF
:FULLY-SPECIFIED
:DEGREES
301
root 0 0 0 -12.110260549246993 -30.739821086417635 -1.5561678888751862
lowerback 4.387439819569153 -0.07935216198942618 -3.245297237835639
upperback -1.8460059395120996 -0.3820666419456936 -1.031413529159316
thorax -4.234074832143766 -0.17480014457568188 0.877831012118689
lowerneck -18.190514055773885 -4.090312269466753 -8.461212452373259
upperneck -1.8121333404593152 -5.252577941779111 8.837757175341327
head 3.215640594246202 -2.176016988109266 3.7843195945310724
rclavicle -1.011846811319949E-14 3.203781244680499E-16
rhumerus 4.34971878365725 -12.827277227700252 -66.66350773450793
rradius 18.100489910831463
rwrist 57.80839881124493
rhand -7.30387148166481 21.743870597545325
rfingers 7.125019999999914
rthumb 18.58432694054776 -7.957996191697262
lclavicle -6.451392130832722E-15 6.659684842847489E-15
lhumerus -26.501014967558113 -2.809317424721847 81.57581540517755
lradius 41.06720023519936
lwrist -36.90462067717877
lhand -8.09818340920448 15.066956046387231
lfingers 7.033603185987812
lthumb 17.455531443283682 77.64836226381823
rfemur -16.990994853915133 0.37988909508804447 22.539342370439122
rtibia 70.94272639804429
rfoot 7.980478157301064 -2.9601955195316103
rtoes 13.892470007261418
lfemur 10.130987175605041 -2.6073655122698547 -30.907663883211967
ltibia 19.731438175313343
lfoot -19.923784543676952 1.2855168337934675
ltoes 1.5967513210704576
302
root 0 0 0 -12.328177123251443 -37.131878832129516 -1.2603235872314495
lowerback 5.033301384023742 -0.3803872190858024 -2.7964573795393646
upperback -1.7163452288296654 -0.7805866559807401 -0.6201028562992975
thorax -4.441440013805673 -0.3796041789567484 1.08722617982054
lowerneck -18.332487519629876 -3.5688296689407233 -8.220906996004954
upperneck -2.288212069573426 -4.515267054151228 8.914060637317961
head 2.9811965496531094 -1.8392106065137452 3.8140102898675274
rclavicle -9.974824462356772E-15 1.5940347351604634E-16
rhumerus 3.8687260646863555 -12.819747682814596 -66.90846451403789
rradius 17.974165855847367
rwrist 57.98445815352959
rhand -7.26828439911106 21.8145513172198
rfingers 7.125019999999912
rthumb 18.620181038622285 -7.885959845560873
lclavicle -5.881038843309411E-15 6.025594066209044E-15
lhumerus -25.854697653575414 -2.7989387288819536 81.13983039076199
lradius 39.292625107891595
lwrist -37.664017507152096
lhand -8.297135569865429 14.956700355874071
lfingers 7.031040329415676
lthumb 17.253104345269694 78.56211928666481
rfemur -17.74836900123737 0.2389588285260018 22.737862964406194
rtibia 70.03030808552379
rfoot 7.107445208332564 -3.0816533291796055
rtoes 13.390282992105325
lfemur 11.089062841790687 -2.6149855360151446 -30.976652707555154
ltibia 19.557141054065372
lfoot -19.7241842282853 0.8616646790778599
ltoes 0.7522082289790184
303
root 0 0 0 -12.176516573166454 -41.21795171821798 -0.9624349086090129
lowerback 5.22280846177629 -0.5899010013446289 -2.401334502283551
upperback -1.6354143016393698 -1.032118006085165 -0.32423382811656226
thorax -4.458377038965205 -0.5086663152038753 1.1951431237909598
lowerneck -18.19844100080779 -3.267684693614617 -8.112860683932453
upperneck -2.072173173695896 -4.1170106185202435 9.006458883625793
head 2.958092179256796 -1.6634506034982253 3.8522287178807444
rclavicle -9.85064047616033E-15 1.41467501893445E-17
rhumerus 3.340406321031518 -12.728919531800235 -67.21117866692991
rradius 17.905954396997508
rwrist 58.111442728282924
rhand -7.247680728510405 21.853406331761114
rfingers 7.12501999999991
rthumb 18.641235755647383 -7.845225492843792
lclavicle -5.281388431715328E-15 5.534252418502309E-15
lhumerus -25.58437177375231 -2.9493856860127536 81.01487064188441
lradius 38.172051497315636
lwrist -38.053846187874015
lhand -8.499992302713315 14.954283813339563
lfingers 7.030756652343501
lthumb 17.056595926794472 79.0786009029437
rfemur -18.176547108055164 0.1634176587370817 23.007633949686536
rtibia 68.97913347323778
rfoot 6.510234734546074 -3.103978666525636
rtoes 13.039943501762759
lfemur 11.750592000715566 -2.610056239467783 -31.00231493476391
ltibia 19.455981391574724
lfoot -19.560098194757984 0.5124195121685755
ltoes 0.021662230536777294
304
root 0 0 0 -11.812356147486405 -43.89725612051906 -0.7106412339466468
lowerback 5.146976997245661 -0.7515914478880721 -2.0446772267871625
upperback -1.6058362964632464 -1.2079354211116335 -0.105682151618546
thorax -4.386620478480474 -0.5980316545315143 1.2377551560417772
lowerneck -17.967241735357465 -3.094143564779096 -8.083021975908862
upperneck -1.6542995512719134 -3.904722877987374 9.064072129090855
head 3.0073919608123103 -1.5750872076537754 3.882020579848161
rclavicle -9.747913298552099E-15 -7.525381579743961E-17
rhumerus 2.927905548126435 -12.625461472853049 -67.45564139922413
rradius 17.870642085935152
rwrist 58.18378154487971
rhand -7.236098981660897 21.86405396023265
rfingers 7.12501999999991
rthumb 18.65307046648193 -7.83288105412646
lclavicle -4.75130777917464E-15 5.293126178321491E-15
lhumerus -25.59293010728715 -3.1256023081504516 81.09387388343838
lradius 37.669224029049886
lwrist -38.18386101036697
lhand -8.690240355332303 15.000045731921386
lfingers 7.031671231770126
lthumb 16.877582730346756 79.19155908649635
rfemur -18.14860251336468 0.1930760038739141 23.318518845803023
rtibia 67.9370323181453
rfoot 6.175406287207309 -3.051157339026104
rtoes 12.918313967990015
lfemur 12.212091905033256 -2.609351698207158 -31.003650633941398
ltibia 19.375170967585994
lfoot -19.42698001953806 0.2482833452394484
ltoes -0.559066196460547
